<svg id="Layer_1" xmlns="http://www.w3.org/2000/svg" xmlns:xlink="http://www.w3.org/1999/xlink" viewBox="0 0 319.07 347.64"><style>.st0{fill:#5bc4e0}.st1{fill:#fcfeff}.st2{fill:#113448}.st3{enable-background:new}.st13{fill:#59c6e0}.st23{fill:#8c8b8c}</style><path class="st0" d="M296.56 210.35l-13.88-6.45 22.33-10.03 13.88 6.45zM296.71 187.32l-13.87-6.45 18.67-8.38 13.88 6.44z"/><path class="st1" d="M319.07 154.73l-.08 11.67-22.2 9.97-.08 10.95 18.68-8.39-.08 11.6-18.68 8.38-.07 11.44 22.33-10.03-.08 11.76-33.82 15.18.39-57.41z"/><path class="st2" d="M284.99 227.26l-13.88-6.45.39-57.41 13.88 6.45z"/><path class="st0" d="M285.38 169.85l-13.88-6.45 33.69-15.12 13.88 6.45z"/><path class="st2" d="M284.07 143.04l-13.88-6.45.31-45.9 13.88 6.45z"/><path class="st1" d="M308.91 74.64l-.07 11.52-12.97 5.82-.31 45.9-11.49 5.16.31-45.9-12.96 5.82.08-11.52z"/><path class="st2" d="M271.42 102.96l-13.88-6.45.08-11.51 13.88 6.44z"/><path class="st0" d="M271.5 91.44L257.62 85l37.42-16.8 13.87 6.44z"/><path class="st1" d="M265.98 93.92l-.39 57.41-11.49 5.16.39-57.41z"/><path class="st2" d="M254.1 156.49l-13.88-6.45.39-57.41 13.88 6.45z"/><path class="st0" d="M254.49 99.08l-13.88-6.45 11.49-5.16 13.88 6.45zM257.92 226.69l-13.88-6.45 21.76-9.77 13.88 6.45z"/><path class="st1" d="M258.23 181.04l-.31 45.65 21.76-9.77-.08 11.76-33.25 14.93.4-57.41z"/><path class="st2" d="M246.35 243.61l-13.87-6.45.39-57.41 13.88 6.45z"/><path class="st0" d="M246.75 186.2l-13.88-6.45 11.48-5.16 13.88 6.45z"/><g class="st3"><defs><path id="SVGID_1_" class="st3" d="M222.1 214.19l13.88 6.45c-.99-.46-2.15-.65-3.48-.51l-13.88-6.45c1.33-.14 2.49.05 3.48.51z"/></defs><clipPath id="SVGID_2_"><use xlink:href="#SVGID_1_" overflow="visible"/></clipPath><path d="M232.5 220.13l-13.88-6.45c1.33-.14 2.49.05 3.48.51l13.88 6.45c-.99-.46-2.15-.65-3.48-.51" clip-path="url(#SVGID_2_)" fill="#979798"/></g><defs><path id="SVGID_3_" d="M213.07 223.47l13.88 6.45c1.12.52 1.7 1.84 1.68 3.91-.03 3.79-2.1 7.37-5.82 9.04l-13.88-6.45c3.72-1.67 5.79-5.25 5.82-9.04.01-2.07-.56-3.39-1.68-3.91z"/></defs><use xlink:href="#SVGID_3_" overflow="visible" fill="#113448"/><clipPath id="SVGID_4_"><use xlink:href="#SVGID_3_" overflow="visible"/></clipPath><path d="M222.81 242.86l-13.88-6.45c3.72-1.67 5.79-5.25 5.82-9.04.01-2.07-.56-3.39-1.68-3.91l13.88 6.45c1.12.52 1.7 1.84 1.68 3.91-.03 3.79-2.1 7.37-5.82 9.04" clip-path="url(#SVGID_4_)" fill="#113448"/><path class="st0" d="M213.7 246.95l-13.88-6.44 9.11-4.09 13.88 6.44z"/><defs><path id="SVGID_5_" d="M212.69 201.23l13.88 6.45c1.03.48 1.59 1.65 1.58 3.49-.02 3.54-1.91 7.03-5.56 8.67l-13.88-6.45c3.66-1.64 5.54-5.14 5.56-8.67.01-1.84-.55-3.01-1.58-3.49z"/></defs><use xlink:href="#SVGID_5_" overflow="visible" fill="#113448"/><clipPath id="SVGID_6_"><use xlink:href="#SVGID_5_" overflow="visible"/></clipPath><path d="M222.59 219.84l-13.88-6.45c3.66-1.64 5.54-5.14 5.56-8.67.01-1.84-.55-3.01-1.58-3.49l13.88 6.45c1.03.48 1.59 1.65 1.58 3.49-.03 3.54-1.91 7.03-5.56 8.67" clip-path="url(#SVGID_6_)" fill="#113448"/><path class="st0" d="M213.86 223.76l-13.88-6.45 8.73-3.92 13.88 6.45z"/><path class="st1" d="M232.5 220.13c5.12-.53 7.78 3.81 7.74 9.85-.06 9.5-5.7 18.94-14.1 22.71l-23.93 10.75.39-57.41 23.3-10.46c9.05-4.06 13.63-.34 13.57 8.43-.04 5.4-2.13 11.47-6.95 15.96l-.02.17zm-9.69 22.73c3.72-1.67 5.79-5.25 5.82-9.04.03-3.87-2.01-5.11-5.8-3.42l-9.05 4.06-.09 12.48 9.12-4.08m-8.87-30.85l-.08 11.75 8.73-3.92c3.66-1.64 5.54-5.14 5.56-8.67.02-3.55-2.08-4.6-5.61-3.02l-8.6 3.86"/><path class="st0" d="M221.43 188.08c-2.24-1.04-5.39-.78-9.42 1.03l-23.3 10.46 13.88 6.45 23.3-10.46c4.03-1.81 7.18-2.08 9.42-1.03l-13.88-6.45z"/><path class="st2" d="M202.2 263.44l-13.88-6.45.39-57.41 13.88 6.44z"/><defs><path id="SVGID_7_" d="M200 176.54l-13.88-6.45c-1.52-.71-2.88-1.8-4.04-3.33l13.88 6.45c1.16 1.53 2.52 2.62 4.04 3.33z"/></defs><use xlink:href="#SVGID_7_" overflow="visible" fill="#113448"/><clipPath id="SVGID_8_"><use xlink:href="#SVGID_7_" overflow="visible"/></clipPath><path d="M200 176.54l-13.88-6.45c-1.52-.71-2.88-1.8-4.04-3.33l13.88 6.45c1.16 1.53 2.52 2.62 4.04 3.33" clip-path="url(#SVGID_8_)" fill="#113448"/><path class="st0" d="M195.96 173.2l-13.88-6.44 7.3-11.39 13.88 6.45z"/><path class="st2" d="M184.47 135.26c-.04 5.82 1.76 8.95 4.65 10.29L203 152c-2.89-1.34-4.69-4.46-4.65-10.29.04-5.45 1.97-10.98 5.19-15.7-5.19-.74-9.3-4.77-13.93-6.37-3.19 4.7-5.1 10.2-5.14 15.62z"/><defs><path id="SVGID_9_" d="M215.21 131.07l13.88 6.45c-1.69-.79-3.78-.97-6.14-.67l-13.88-6.45c2.36-.31 4.45-.12 6.14.67z"/></defs><use xlink:href="#SVGID_9_" overflow="visible" fill="#5bc4e0"/><clipPath id="SVGID_10_"><use xlink:href="#SVGID_9_" overflow="visible"/></clipPath><path d="M222.95 136.85l-13.88-6.45c2.36-.3 4.45-.12 6.14.67l13.88 6.45c-1.7-.79-3.78-.98-6.14-.67" clip-path="url(#SVGID_10_)" fill="#5bc4e0"/><defs><path id="SVGID_11_" d="M206.2 164.2l-13.88-6.45c2.36 1.1 5.41 1.1 8.63-.35 3.46-1.56 7.19-4.59 7.22-8.62.01-1.82-.59-2.78-1.57-3.23l13.88 6.45c.98.45 1.58 1.41 1.57 3.23-.03 4.03-3.76 7.07-7.22 8.62-3.23 1.45-6.27 1.45-8.63.35z"/></defs><use xlink:href="#SVGID_11_" overflow="visible" fill="#113448"/><clipPath id="SVGID_12_"><use xlink:href="#SVGID_11_" overflow="visible"/></clipPath><path d="M206.2 164.2l-13.88-6.45c2.36 1.1 5.41 1.1 8.63-.35 3.46-1.56 7.19-4.59 7.22-8.62.01-1.82-.59-2.78-1.57-3.23l13.88 6.45c.98.45 1.58 1.41 1.57 3.23-.03 4.03-3.76 7.07-7.22 8.62-3.23 1.45-6.27 1.45-8.63.35" clip-path="url(#SVGID_12_)" fill="#113448"/><g class="st3"><defs><path id="SVGID_13_" class="st3" d="M209.68 119.74l13.88 6.45c.73.34 1.39.83 1.94 1.48l-13.88-6.45a5.646 5.646 0 0 0-1.94-1.48z"/></defs><clipPath id="SVGID_14_"><use xlink:href="#SVGID_13_" overflow="visible"/></clipPath><path d="M225.5 127.67l-13.88-6.45a5.741 5.741 0 0 0-1.94-1.48l13.88 6.45c.73.34 1.39.83 1.94 1.48" clip-path="url(#SVGID_14_)" fill="#979798"/></g><path class="st0" d="M215.77 137.66l-13.88-6.45 7.18-.81 13.88 6.45z"/><defs><path id="SVGID_15_" d="M210.95 137.52l-13.88-6.45c1.13.52 2.86.38 4.82.14l13.88 6.45c-1.96.24-3.69.38-4.82-.14z"/></defs><use xlink:href="#SVGID_15_" overflow="visible" fill="#5bc4e0"/><clipPath id="SVGID_16_"><use xlink:href="#SVGID_15_" overflow="visible"/></clipPath><path d="M210.95 137.52l-13.88-6.45c1.13.52 2.86.38 4.82.14l13.88 6.45c-1.96.24-3.69.38-4.82-.14" clip-path="url(#SVGID_16_)" fill="#5bc4e0"/><path class="st2" d="M203 152l-13.88-6.45c-2.89-1.34-4.69-4.46-4.65-10.29.07-10.71 7.44-21.73 17.58-26.28l13.88 6.45c-10.14 4.55-17.5 15.57-17.58 26.28-.04 5.83 1.76 8.95 4.65 10.29z"/><path class="st0" d="M215.37 107.36c-3.35-1.56-7.48-1.01-13.33 1.62-5 2.25-9.33 6.07-12.44 10.66 4.63 1.6 8.74 5.63 13.93 6.37 3.11-4.55 7.41-8.35 12.38-10.58 5.85-2.63 9.98-3.18 13.33-1.62l-13.87-6.45z"/><path class="st1" d="M215.92 115.43c8.09-3.63 12.88-3.3 16.89 1.09l-7.31 11.14c-2.22-2.61-6.06-2.58-9.66-.96-3.34 1.5-6.23 4.24-6.26 8.19-.02 3.31 2.73 3.19 6.18 2.76l7.17-.81c6.53-.84 10.93 2.08 10.87 11.01-.09 12.48-9.12 22.8-18.55 27.04-8.02 3.6-14.99 4-19.31-1.69l7.3-11.38c2.35 3.12 6.75 4.19 11.57 2.03 3.46-1.56 7.19-4.59 7.22-8.62.02-3.54-2.28-3.8-5.1-3.49l-7.88.97c-6.21.7-10.8-1.74-10.73-10.99.1-10.72 7.46-21.74 17.6-26.29zM194.69 209.57l-.39 57.41-11.48 5.16.39-57.41z"/><path class="st2" d="M182.82 272.14l-13.88-6.45.39-57.41 13.88 6.45z"/><path class="st0" d="M183.21 214.73l-13.88-6.45 11.48-5.16 13.88 6.45zM170.49 182.31l-13.87-6.44 22.33-10.03 13.88 6.45zM170.65 159.28l-13.88-6.45 18.67-8.38 13.88 6.45z"/><path class="st1" d="M193 126.69l-.08 11.67-22.19 9.97-.08 10.95 18.67-8.38-.08 11.6-18.67 8.38-.08 11.43 22.34-10.02-.08 11.75-33.83 15.19.39-57.41z"/><path class="st2" d="M158.92 199.23l-13.88-6.45.4-57.41 13.87 6.45z"/><path class="st0" d="M159.31 141.82l-13.87-6.45 33.69-15.13 13.87 6.45z"/><path class="st2" d="M141.78 206.92l-13.87-6.45-10.49-19.69 13.88 6.45z"/><path class="st0" d="M141.92 149.63l-13.88-6.45 12.2-5.48 13.87 6.45z"/><path class="st2" d="M125.89 182.75l-13.87-6.44 16.02-33.13 13.88 6.45z"/><path class="st1" d="M154.11 144.15l-14.66 29.55 15.11 27.49-12.78 5.73-10.48-19.69-5.51 10.17-.11 16.75-11.49 5.16.39-57.41 11.49-5.16-.18 26.01 16.03-33.12z"/><path class="st2" d="M114.19 219.31l-13.88-6.45.39-57.41 13.88 6.45z"/><path class="st0" d="M114.58 161.9l-13.88-6.45 11.49-5.16 13.88 6.45z"/><path class="st2" d="M98.01 226.58l-13.87-6.45-2.69-9.47 13.88 6.45z"/><path class="st0" d="M81.8 211.94l-13.87-6.45 10.77-4.84 13.88 6.45z"/><path class="st2" d="M92.58 207.1l-13.88-6.45-5.11-18.42 13.87 6.45z"/><path class="st1" d="M94.11 171.01l15.65 50.29-11.75 5.27-2.68-9.47-16.37 7.35-2.89 11.97-10.85 4.87 16.63-64.78 12.26-5.5zM81.8 211.94l10.78-4.84-5.12-18.41-.19.09-5.47 23.16"/><path class="st2" d="M65.22 241.3l-13.88-6.45 16.64-64.78 13.87 6.45z"/><path class="st0" d="M81.85 176.52l-13.87-6.45 12.25-5.51 13.88 6.45z"/><path class="st2" d="M50.14 248.07l-13.88-6.45.25-36.55 13.88 6.45z"/><path class="st2" d="M37.63 225.99l-13.88-6.44 9.44-33.78 13.88 6.45z"/><path class="st0" d="M47.07 192.22l-13.88-6.45 14.05-6.31 13.88 6.45z"/><path class="st2" d="M33.44 247.87l-13.88-6.45-8.59-24.8 13.88 6.44z"/><path class="st2" d="M13.88 264.35L0 257.9l.39-57.41 13.88 6.45z"/><path fill="#fefafb" d="M61.12 185.91l-.39 57.41-10.59 4.75.25-36.55-9.05 32.8-7.9 3.55-8.59-24.81-.38 36.54-10.59 4.75.39-57.41 14.25-6.4 9.11 25.45 9.44-33.77z"/><path class="st0" d="M14.27 206.94L.39 200.49l14.25-6.39 13.88 6.44z"/><path class="st2" d="M261.83 43.72l-13.88-6.45.35-32.51 13.88 6.44zM261.72 68.65l-13.88-6.45-17.67-25.7 13.88 6.45z"/><path class="st1" d="M272.77 6.45l-.39 57.42-10.66 4.78-17.67-25.7-.37 33.8-10.58 4.75.39-57.42 11.1-4.98 17.24 24.62.35-32.52z"/><path class="st2" d="M233.1 81.5l-13.88-6.44.39-57.42 13.88 6.44z"/><path class="st13" d="M233.49 24.08l-13.88-6.44 11.1-4.99 13.88 6.45z"/><defs><path id="SVGID_17_" d="M201.94 82.77l-13.88-6.45c1.38.64 3.19.48 5.26-.45 4.04-1.81 7.91-6.44 7.96-12.97l13.88 6.45c-.04 6.52-3.92 11.15-7.96 12.97-2.07.93-3.88 1.09-5.26.45z"/></defs><use xlink:href="#SVGID_17_" overflow="visible" fill="#113448"/><clipPath id="SVGID_18_"><use xlink:href="#SVGID_17_" overflow="visible"/></clipPath><path d="M201.94 82.77l-13.88-6.45c1.38.64 3.19.48 5.26-.45 4.04-1.81 7.91-6.44 7.96-12.97l13.88 6.45c-.04 6.52-3.92 11.15-7.96 12.97-2.07.93-3.88 1.09-5.26.45" clip-path="url(#SVGID_18_)" fill="#113448"/><path class="st2" d="M215.16 69.36l-13.88-6.45.12-16.99 13.87 6.45z"/><defs><path id="SVGID_19_" d="M198.59 39.85l13.88 6.45c1.72.8 2.83 2.77 2.81 6.07l-13.88-6.45c.02-3.3-1.1-5.27-2.81-6.07z"/></defs><use xlink:href="#SVGID_19_" overflow="visible" fill="#113448"/><clipPath id="SVGID_20_"><use xlink:href="#SVGID_19_" overflow="visible"/></clipPath><path d="M215.27 52.37l-13.88-6.45c.02-3.3-1.09-5.28-2.81-6.07l13.88 6.45c1.72.79 2.84 2.77 2.81 6.07" clip-path="url(#SVGID_20_)" fill="#113448"/><defs><path id="SVGID_21_" d="M206.53 27.4l13.88 6.45c-3.56-1.65-8.26-1.11-13.15 1.09l-13.88-6.45c4.89-2.2 9.59-2.74 13.15-1.09z"/></defs><use xlink:href="#SVGID_21_" overflow="visible" fill="#5bc4e0"/><clipPath id="SVGID_22_"><use xlink:href="#SVGID_21_" overflow="visible"/></clipPath><path d="M207.26 34.94l-13.88-6.45c4.89-2.19 9.59-2.74 13.15-1.09l13.88 6.45c-3.56-1.65-8.26-1.11-13.15 1.09" clip-path="url(#SVGID_22_)" fill="#5bc4e0"/><path class="st0" d="M187.8 65.34l-13.88-6.45c.1-14.57 9.65-26 19.46-30.41l13.88 6.45c-9.81 4.41-19.36 15.84-19.46 30.41z"/><path class="st2" d="M187.69 81.93l.1-14.96.02.01c.04-6.36 1.88-13.76 4.76-18.6-5.07-2.07-9.47-3.33-14.31-5.67-2.62 4.68-4.3 10.15-4.34 16.18l-.11 16.59c-.05 7.55 2.33 11.78 6.03 13.5l13.88 6.45c-3.71-1.72-6.08-5.95-6.03-13.5z"/><path class="st0" d="M195.41 70.46l18.69 8.27-14.3 9.05z"/><path class="st1" d="M207.26 34.94c10.21-4.58 19.59-1.97 19.49 12.84l-.11 15.95c-.1 14.97-9.97 26.15-19.53 30.44-10.27 4.61-19.53 2.59-19.43-12.23l.11-16.59c.11-14.58 9.66-26.01 19.47-30.41zm7.9 34.42l.12-16.99c.04-6.04-3.73-7.64-8.03-5.71-4.1 1.84-7.91 6.28-7.96 12.97l-.11 16.83c-.04 6.12 3.34 7.98 8.03 5.87 4.03-1.82 7.9-6.45 7.95-12.97"/><path class="st13" d="M262.18 11.2L248.3 4.76 258.89 0l13.88 6.45z"/><path class="st0" d="M155.72 104.52l-13.88-6.44 6.99-3.14 13.88 6.44z"/><path class="st2" d="M168.01 67.22l-13.88-6.45c1.68.78 2.72 2.68 2.7 5.69l-.11 15.79c-.04 5.88-3.72 10.82-7.89 12.69l13.88 6.45c4.17-1.87 7.85-6.81 7.89-12.69l.11-15.79c.02-3.02-1.02-4.91-2.7-5.69zM144.15 121.44L130.27 115l.39-57.42 13.88 6.45z"/><path class="st0" d="M162.38 47.9c-3.32-1.54-7.76-1.08-12.6 1.09l-19.12 8.59 13.88 6.45 19.12-8.59c4.84-2.17 9.28-2.63 12.6-1.09l-13.88-6.45z"/><path class="st1" d="M163.66 55.44c10.21-4.58 18.63-1.54 18.54 11.83l-.11 16.18c-.1 14.26-9.13 25.06-18.76 29.38l-19.19 8.61.39-57.42 19.13-8.58zm6.94 33.25l.11-15.79c.04-5.56-3.53-7.32-8.09-5.28l-6.67 3-.23 33.9 6.99-3.14c4.17-1.87 7.85-6.81 7.89-12.69"/><path class="st2" d="M125.77 104.81l-13.88-6.45.35-32.51 13.88 6.45z"/><path class="st13" d="M126.12 72.3l-13.88-6.45 10.59-4.76 13.88 6.45z"/><path class="st2" d="M125.66 129.74l-13.88-6.44-17.67-25.71 13.88 6.45z"/><path class="st1" d="M136.71 67.54l-.39 57.42-10.66 4.78-17.67-25.7-.36 33.8-10.59 4.76.39-57.42 11.1-4.99 17.24 24.62.35-32.51z"/><path class="st2" d="M97.04 142.6l-13.88-6.45.39-57.42 13.88 6.45z"/><path class="st13" d="M97.43 85.18l-13.88-6.45 11.1-4.99 13.88 6.45z"/><path class="st0" d="M25.95 162.79l-13.88-6.45 21.75-9.76 13.88 6.44z"/><path class="st1" d="M26.26 117.13l-.31 45.66 21.75-9.77-.08 11.76-33.24 14.93.39-57.42z"/><path class="st2" d="M14.38 179.71L.5 173.26l.39-57.42 13.88 6.45z"/><path class="st13" d="M14.77 122.29L.89 115.84l11.49-5.16 13.88 6.45z"/><g><defs><path id="SVGID_23_" d="M65.8 143.87l-13.88-6.45c1.38.64 3.19.48 5.26-.45 4.04-1.81 7.91-6.44 7.96-12.97l13.88 6.45c-.04 6.52-3.92 11.15-7.96 12.97-2.07.93-3.88 1.09-5.26.45z"/></defs><use xlink:href="#SVGID_23_" overflow="visible" fill="#113448"/><clipPath id="SVGID_24_"><use xlink:href="#SVGID_23_" overflow="visible"/></clipPath><path d="M65.8 143.87l-13.88-6.45c1.38.64 3.19.48 5.26-.45 4.04-1.81 7.91-6.44 7.96-12.97l13.88 6.45c-.04 6.52-3.92 11.15-7.96 12.97-2.07.93-3.88 1.09-5.26.45" clip-path="url(#SVGID_24_)" fill="#113448"/></g><path class="st2" d="M79.02 130.45l-13.88-6.44.11-16.99 13.88 6.45z"/><g><defs><path id="SVGID_25_" d="M62.45 100.94l13.88 6.45c1.72.8 2.83 2.77 2.81 6.07l-13.88-6.45c.02-3.29-1.1-5.27-2.81-6.07z"/></defs><use xlink:href="#SVGID_25_" overflow="visible" fill="#113448"/><clipPath id="SVGID_26_"><use xlink:href="#SVGID_25_" overflow="visible"/></clipPath><path d="M79.13 113.47l-13.88-6.45c.02-3.3-1.09-5.28-2.81-6.07l13.88 6.45c1.72.79 2.83 2.76 2.81 6.07" clip-path="url(#SVGID_26_)" fill="#113448"/></g><g><defs><path id="SVGID_27_" d="M70.39 88.5l13.88 6.45c-3.56-1.65-8.26-1.11-13.15 1.09l-13.88-6.45c4.89-2.2 9.59-2.75 13.15-1.09z"/></defs><use xlink:href="#SVGID_27_" overflow="visible" fill="#5bc4e0"/><clipPath id="SVGID_28_"><use xlink:href="#SVGID_27_" overflow="visible"/></clipPath><path d="M71.12 96.03l-13.88-6.45c4.89-2.19 9.59-2.74 13.15-1.09l13.88 6.45c-3.56-1.65-8.26-1.1-13.15 1.09" clip-path="url(#SVGID_28_)" fill="#5bc4e0"/></g><path class="st0" d="M51.66 126.44l-13.88-6.45c.1-14.57 9.65-26 19.46-30.41l13.88 6.45c-9.81 4.41-19.36 15.84-19.46 30.41z"/><path class="st2" d="M51.55 143.03l.1-14.96.02.01c.04-6.36 1.88-13.76 4.76-18.6-5.07-2.07-9.47-3.33-14.31-5.67-2.62 4.68-4.3 10.15-4.34 16.18l-.11 16.59c-.05 7.55 2.33 11.78 6.03 13.5l13.88 6.45c-3.71-1.72-6.09-5.95-6.03-13.5z"/><path class="st0" d="M59.27 131.55l18.69 8.28-14.3 9.04z"/><path class="st1" d="M71.12 96.03c10.21-4.58 19.59-1.97 19.49 12.84l-.11 15.95c-.1 14.97-9.97 26.15-19.53 30.44-10.27 4.61-19.53 2.59-19.43-12.23l.11-16.59c.11-14.57 9.66-26 19.47-30.41zm7.9 34.42l.12-16.99c.04-6.04-3.73-7.64-8.03-5.71-4.1 1.84-7.91 6.28-7.96 12.97l-.11 16.83c-.04 6.12 3.34 7.98 8.03 5.87 4.03-1.81 7.9-6.44 7.95-12.97"/><g class="st3"><defs><path id="SVGID_29_" class="st3" d="M158.36 240.23l13.88 6.45c-1.69-.79-3.77-.97-6.13-.67l-13.88-6.45c2.36-.31 4.44-.12 6.13.67z"/></defs><clipPath id="SVGID_30_"><use xlink:href="#SVGID_29_" overflow="visible"/></clipPath><path d="M166.1 246.01l-13.88-6.45c2.36-.31 4.44-.12 6.13.67l13.88 6.45c-1.68-.79-3.77-.98-6.13-.67" clip-path="url(#SVGID_30_)" fill="#979798"/></g><g class="st3"><defs><path id="SVGID_31_" class="st3" d="M149.36 273.36l-13.88-6.45c2.36 1.1 5.4 1.1 8.62-.34 3.47-1.56 7.2-4.6 7.23-8.62.01-1.83-.59-2.78-1.57-3.23l13.88 6.45c.98.45 1.58 1.41 1.57 3.23-.03 4.03-3.76 7.07-7.23 8.62-3.22 1.44-6.26 1.44-8.62.34z"/></defs><clipPath id="SVGID_32_"><use xlink:href="#SVGID_31_" overflow="visible"/></clipPath><path d="M149.36 273.36l-13.88-6.45c2.36 1.1 5.4 1.1 8.62-.34 3.47-1.56 7.2-4.6 7.23-8.62.01-1.83-.59-2.78-1.57-3.23l13.88 6.45c.98.45 1.58 1.41 1.57 3.23-.03 4.03-3.76 7.07-7.23 8.62-3.22 1.44-6.26 1.44-8.62.34" clip-path="url(#SVGID_32_)" fill="#979798"/></g><g class="st3"><defs><path id="SVGID_33_" class="st3" d="M152.84 228.9l13.88 6.45c.73.34 1.39.83 1.94 1.48l-13.88-6.45a5.646 5.646 0 0 0-1.94-1.48z"/></defs><clipPath id="SVGID_34_"><use xlink:href="#SVGID_33_" overflow="visible"/></clipPath><path d="M168.66 236.83l-13.88-6.45a5.616 5.616 0 0 0-1.94-1.48l13.88 6.45c.73.34 1.38.83 1.94 1.48" clip-path="url(#SVGID_34_)" fill="#979798"/></g><path class="st23" d="M158.93 246.82l-13.88-6.45 7.18-.81 13.87 6.45z"/><g class="st3"><defs><path id="SVGID_35_" class="st3" d="M143.15 285.7l-13.88-6.45c-1.52-.71-2.87-1.8-4.04-3.33l13.88 6.45c1.16 1.53 2.52 2.63 4.04 3.33z"/></defs><clipPath id="SVGID_36_"><use xlink:href="#SVGID_35_" overflow="visible"/></clipPath><path d="M143.15 285.7l-13.88-6.45c-1.52-.71-2.87-1.8-4.04-3.33l13.88 6.45c1.16 1.53 2.52 2.63 4.04 3.33" clip-path="url(#SVGID_36_)" fill="#979798"/></g><path class="st23" d="M139.11 282.37l-13.88-6.45 7.31-11.39 13.88 6.45z"/><g class="st3"><defs><path id="SVGID_37_" class="st3" d="M154.1 246.68l-13.88-6.45c1.13.53 2.87.38 4.83.14l13.88 6.45c-1.96.24-3.7.38-4.83-.14z"/></defs><clipPath id="SVGID_38_"><use xlink:href="#SVGID_37_" overflow="visible"/></clipPath><path d="M154.1 246.68l-13.88-6.45c1.13.53 2.87.38 4.83.14l13.88 6.45c-1.96.24-3.7.38-4.83-.14" clip-path="url(#SVGID_38_)" fill="#979798"/></g><g class="st3"><defs><path id="SVGID_39_" class="st3" d="M146.15 261.16l-13.88-6.45c-2.89-1.34-4.69-4.47-4.65-10.29.07-10.71 7.44-21.72 17.58-26.28l13.88 6.45c-10.14 4.55-17.51 15.56-17.58 26.28-.04 5.83 1.76 8.95 4.65 10.29z"/></defs><clipPath id="SVGID_40_"><use xlink:href="#SVGID_39_" overflow="visible"/></clipPath><path d="M146.15 261.16l-13.88-6.45c-2.89-1.34-4.69-4.47-4.65-10.29.07-10.71 7.44-21.72 17.58-26.28l13.88 6.45c-10.14 4.55-17.51 15.56-17.58 26.28-.04 5.83 1.76 8.95 4.65 10.29" clip-path="url(#SVGID_40_)" fill="#979798"/></g><path class="st1" d="M159.08 224.59c8.08-3.63 12.88-3.3 16.88 1.09l-7.3 11.15c-2.22-2.62-6.06-2.58-9.66-.96-3.34 1.5-6.24 4.25-6.26 8.19-.02 3.3 2.73 3.19 6.19 2.76l7.17-.81c6.53-.85 10.92 2.08 10.86 11.02-.09 12.48-9.11 22.8-18.54 27.03-8.02 3.6-15 4.01-19.31-1.69l7.31-11.39c2.35 3.12 6.75 4.2 11.56 2.04 3.47-1.56 7.2-4.6 7.23-8.62.02-3.55-2.28-3.8-5.1-3.5l-7.88.97c-6.21.7-10.8-1.73-10.74-11 .08-10.71 7.45-21.72 17.59-26.28z"/><g class="st3"><defs><path id="SVGID_41_" class="st3" d="M117.93 258.38l13.88 6.45c-1.69-.79-3.78-.97-6.14-.67l-13.88-6.45c2.36-.3 4.45-.11 6.14.67z"/></defs><clipPath id="SVGID_42_"><use xlink:href="#SVGID_41_" overflow="visible"/></clipPath><path d="M125.67 264.16l-13.88-6.45c2.36-.31 4.44-.12 6.14.67l13.88 6.45c-1.69-.79-3.78-.97-6.14-.67" clip-path="url(#SVGID_42_)" fill="#979798"/></g><g class="st3"><defs><path id="SVGID_43_" class="st3" d="M108.93 291.52l-13.88-6.45c2.36 1.1 5.4 1.1 8.63-.35 3.46-1.56 7.19-4.59 7.22-8.62.01-1.83-.59-2.78-1.57-3.23l13.88 6.45c.98.45 1.58 1.41 1.57 3.23-.03 4.03-3.76 7.07-7.22 8.62-3.23 1.45-6.27 1.44-8.63.35z"/></defs><clipPath id="SVGID_44_"><use xlink:href="#SVGID_43_" overflow="visible"/></clipPath><path d="M108.93 291.52l-13.88-6.45c2.36 1.1 5.4 1.1 8.63-.35 3.46-1.56 7.19-4.59 7.22-8.62.01-1.83-.59-2.78-1.57-3.23l13.88 6.45c.98.45 1.58 1.41 1.57 3.23-.03 4.03-3.76 7.07-7.22 8.62-3.23 1.45-6.27 1.44-8.63.35" clip-path="url(#SVGID_44_)" fill="#979798"/></g><g class="st3"><defs><path id="SVGID_45_" class="st3" d="M112.4 247.05l13.88 6.45c.73.34 1.39.83 1.94 1.48l-13.88-6.45a5.646 5.646 0 0 0-1.94-1.48z"/></defs><clipPath id="SVGID_46_"><use xlink:href="#SVGID_45_" overflow="visible"/></clipPath><path d="M128.23 254.99l-13.88-6.45a5.616 5.616 0 0 0-1.94-1.48l13.88 6.45c.72.33 1.38.82 1.94 1.48" clip-path="url(#SVGID_46_)" fill="#979798"/></g><path class="st23" d="M118.5 264.97l-13.88-6.44 7.17-.81 13.88 6.44z"/><g class="st3"><defs><path id="SVGID_47_" class="st3" d="M113.68 264.83l-13.88-6.45c1.13.52 2.86.38 4.82.14l13.88 6.45c-1.96.25-3.69.39-4.82-.14z"/></defs><clipPath id="SVGID_48_"><use xlink:href="#SVGID_47_" overflow="visible"/></clipPath><path d="M113.68 264.83l-13.88-6.45c1.13.52 2.86.38 4.82.14l13.88 6.45c-1.96.25-3.69.39-4.82-.14" clip-path="url(#SVGID_48_)" fill="#979798"/></g><g class="st3"><defs><path id="SVGID_49_" class="st3" d="M118.1 234.68l13.88 6.45c-3.35-1.56-7.48-1.01-13.33 1.62l-13.88-6.45c5.85-2.63 9.98-3.18 13.33-1.62z"/></defs><clipPath id="SVGID_50_"><use xlink:href="#SVGID_49_" overflow="visible"/></clipPath><path d="M118.65 242.75l-13.88-6.45c5.85-2.63 9.98-3.18 13.33-1.62l13.88 6.45c-3.35-1.56-7.48-1.01-13.33 1.62" clip-path="url(#SVGID_50_)" fill="#979798"/></g><g class="st3"><defs><path id="SVGID_51_" class="st3" d="M105.72 279.32l-13.88-6.45c-2.89-1.34-4.69-4.47-4.65-10.29.07-10.71 7.44-21.72 17.58-26.28l13.88 6.45c-10.14 4.55-17.51 15.56-17.58 26.28-.05 5.82 1.76 8.95 4.65 10.29z"/></defs><clipPath id="SVGID_52_"><use xlink:href="#SVGID_51_" overflow="visible"/></clipPath><path d="M105.72 279.32l-13.88-6.45c-2.89-1.34-4.69-4.47-4.65-10.29.07-10.71 7.44-21.72 17.58-26.28l13.88 6.45c-10.14 4.55-17.51 15.56-17.58 26.28-.05 5.82 1.76 8.95 4.65 10.29" clip-path="url(#SVGID_52_)" fill="#979798"/></g><path class="st1" d="M118.65 242.75c8.09-3.63 12.88-3.3 16.88 1.09l-7.3 11.15c-2.22-2.62-6.06-2.58-9.66-.96-3.34 1.5-6.23 4.24-6.26 8.19-.02 3.3 2.73 3.19 6.18 2.76l7.17-.81c6.53-.85 10.93 2.08 10.87 11.01-.09 12.48-9.12 22.8-18.55 27.04-8.02 3.6-15 4.01-19.31-1.69l7.31-11.39c2.35 3.12 6.75 4.2 11.57 2.04 3.46-1.56 7.19-4.59 7.22-8.62.02-3.55-2.28-3.8-5.1-3.5l-7.88.97c-6.21.7-10.8-1.73-10.74-11 .09-10.72 7.46-21.73 17.6-26.28z"/><g><defs><path id="SVGID_53_" d="M143.01 286.05l-13.88-6.45c-1.52-.71-2.88-1.8-4.04-3.33l13.88 6.45c1.16 1.53 2.52 2.63 4.04 3.33z"/></defs><use xlink:href="#SVGID_53_" overflow="visible" fill="#113448"/><clipPath id="SVGID_54_"><use xlink:href="#SVGID_53_" overflow="visible"/></clipPath><path d="M143.01 286.05l-13.88-6.45c-1.52-.71-2.88-1.8-4.04-3.33l13.88 6.45c1.16 1.53 2.52 2.63 4.04 3.33" clip-path="url(#SVGID_54_)" fill="#113448"/></g><path class="st0" d="M138.97 282.72l-13.88-6.45 7.3-11.38 13.88 6.45z"/><path class="st2" d="M127.48 244.78c-.04 5.82 1.76 8.95 4.65 10.29l13.88 6.45c-2.89-1.34-4.69-4.46-4.65-10.29.04-5.45 1.97-10.98 5.19-15.7-5.19-.74-9.3-4.77-13.93-6.37-3.19 4.69-5.1 10.19-5.14 15.62z"/><g><defs><path id="SVGID_55_" d="M158.22 240.58l13.88 6.45c-1.69-.79-3.78-.97-6.14-.67l-13.88-6.45c2.36-.3 4.45-.12 6.14.67z"/></defs><use xlink:href="#SVGID_55_" overflow="visible" fill="#5bc4e0"/><clipPath id="SVGID_56_"><use xlink:href="#SVGID_55_" overflow="visible"/></clipPath><path d="M165.96 246.36l-13.88-6.45c2.36-.3 4.45-.12 6.14.67l13.88 6.45c-1.69-.79-3.78-.98-6.14-.67" clip-path="url(#SVGID_56_)" fill="#5bc4e0"/></g><g><defs><path id="SVGID_57_" d="M149.21 273.71l-13.88-6.45c2.36 1.1 5.41 1.1 8.63-.35 3.46-1.56 7.19-4.59 7.22-8.62.01-1.82-.59-2.78-1.57-3.23l13.88 6.45c.98.45 1.58 1.41 1.57 3.23-.03 4.03-3.76 7.07-7.22 8.62-3.23 1.45-6.27 1.45-8.63.35z"/></defs><use xlink:href="#SVGID_57_" overflow="visible" fill="#113448"/><clipPath id="SVGID_58_"><use xlink:href="#SVGID_57_" overflow="visible"/></clipPath><path d="M149.21 273.71l-13.88-6.45c2.36 1.1 5.41 1.1 8.63-.35 3.46-1.56 7.19-4.59 7.22-8.62.01-1.82-.59-2.78-1.57-3.23l13.88 6.45c.98.45 1.58 1.41 1.57 3.23-.03 4.03-3.76 7.07-7.22 8.62-3.23 1.45-6.27 1.45-8.63.35" clip-path="url(#SVGID_58_)" fill="#113448"/></g><g class="st3"><defs><path id="SVGID_59_" class="st3" d="M152.69 229.25l13.88 6.45c.73.34 1.39.83 1.94 1.48l-13.88-6.45a5.646 5.646 0 0 0-1.94-1.48z"/></defs><clipPath id="SVGID_60_"><use xlink:href="#SVGID_59_" overflow="visible"/></clipPath><path d="M168.51 237.18l-13.88-6.45a5.741 5.741 0 0 0-1.94-1.48l13.88 6.45c.73.34 1.39.83 1.94 1.48" clip-path="url(#SVGID_60_)" fill="#979798"/></g><path class="st0" d="M158.78 247.17l-13.88-6.45 7.18-.81 13.88 6.45z"/><g><defs><path id="SVGID_61_" d="M153.96 247.03l-13.88-6.45c1.13.52 2.86.38 4.82.14l13.88 6.45c-1.96.24-3.69.38-4.82-.14z"/></defs><use xlink:href="#SVGID_61_" overflow="visible" fill="#5bc4e0"/><clipPath id="SVGID_62_"><use xlink:href="#SVGID_61_" overflow="visible"/></clipPath><path d="M153.96 247.03l-13.88-6.45c1.13.52 2.86.38 4.82.14l13.88 6.45c-1.96.24-3.69.38-4.82-.14" clip-path="url(#SVGID_62_)" fill="#5bc4e0"/></g><path class="st2" d="M146.01 261.51l-13.88-6.45c-2.89-1.34-4.69-4.46-4.65-10.29.07-10.71 7.44-21.73 17.58-26.28l13.88 6.45c-10.14 4.55-17.5 15.57-17.58 26.28-.04 5.83 1.76 8.95 4.65 10.29z"/><path class="st0" d="M158.39 216.88c-3.35-1.56-7.48-1.01-13.33 1.62-5 2.25-9.33 6.07-12.44 10.66 4.63 1.6 8.74 5.63 13.93 6.37 3.11-4.55 7.41-8.35 12.38-10.58 5.85-2.63 9.98-3.18 13.33-1.62l-13.87-6.45z"/><path class="st1" d="M158.93 224.95c8.09-3.63 12.88-3.3 16.89 1.09l-7.31 11.14c-2.22-2.61-6.06-2.58-9.66-.96-3.34 1.5-6.23 4.24-6.26 8.19-.02 3.31 2.73 3.19 6.18 2.76l7.17-.81c6.53-.84 10.93 2.08 10.87 11.01-.09 12.48-9.12 22.8-18.55 27.04-8.02 3.6-14.99 4-19.31-1.69l7.3-11.38c2.35 3.12 6.75 4.19 11.57 2.03 3.46-1.56 7.19-4.59 7.22-8.62.02-3.54-2.28-3.8-5.1-3.49l-7.88.97c-6.21.7-10.8-1.74-10.73-10.99.1-10.73 7.47-21.74 17.6-26.29z"/><g><defs><path id="SVGID_63_" d="M103.06 304.18l-13.88-6.45c-1.52-.71-2.88-1.8-4.04-3.33l13.88 6.45c1.17 1.53 2.52 2.62 4.04 3.33z"/></defs><use xlink:href="#SVGID_63_" overflow="visible" fill="#113448"/><clipPath id="SVGID_64_"><use xlink:href="#SVGID_63_" overflow="visible"/></clipPath><path d="M103.06 304.18l-13.88-6.45c-1.52-.71-2.88-1.8-4.04-3.33l13.88 6.45c1.17 1.53 2.52 2.62 4.04 3.33" clip-path="url(#SVGID_64_)" fill="#113448"/></g><path class="st0" d="M99.02 300.84l-13.87-6.45 7.3-11.38 13.88 6.45z"/><path class="st2" d="M87.54 262.9c-.04 5.82 1.76 8.95 4.65 10.29l13.88 6.45c-2.89-1.34-4.69-4.46-4.65-10.29.04-5.45 1.97-10.98 5.19-15.7-5.19-.74-9.3-4.77-13.93-6.37-3.19 4.7-5.11 10.2-5.14 15.62z"/><g><defs><path id="SVGID_65_" d="M118.28 258.71l13.88 6.45c-1.69-.79-3.78-.98-6.14-.67l-13.88-6.45c2.36-.31 4.44-.12 6.14.67z"/></defs><use xlink:href="#SVGID_65_" overflow="visible" fill="#5bc4e0"/><clipPath id="SVGID_66_"><use xlink:href="#SVGID_65_" overflow="visible"/></clipPath><path d="M126.01 264.48l-13.88-6.45c2.36-.3 4.45-.12 6.14.67l13.88 6.45c-1.69-.78-3.77-.97-6.14-.67" clip-path="url(#SVGID_66_)" fill="#5bc4e0"/></g><g><defs><path id="SVGID_67_" d="M109.27 291.84l-13.88-6.45c2.36 1.1 5.41 1.1 8.63-.35 3.46-1.56 7.19-4.59 7.22-8.62.01-1.82-.59-2.78-1.57-3.23l13.88 6.45c.98.45 1.58 1.41 1.57 3.23-.03 4.03-3.76 7.07-7.22 8.62-3.23 1.45-6.27 1.45-8.63.35z"/></defs><use xlink:href="#SVGID_67_" overflow="visible" fill="#113448"/><clipPath id="SVGID_68_"><use xlink:href="#SVGID_67_" overflow="visible"/></clipPath><path d="M109.27 291.84l-13.88-6.45c2.36 1.1 5.41 1.1 8.63-.35 3.46-1.56 7.19-4.59 7.22-8.62.01-1.82-.59-2.78-1.57-3.23l13.88 6.45c.98.45 1.58 1.41 1.57 3.23-.03 4.03-3.76 7.07-7.22 8.62-3.23 1.45-6.27 1.45-8.63.35" clip-path="url(#SVGID_68_)" fill="#113448"/></g><g class="st3"><defs><path id="SVGID_69_" class="st3" d="M112.75 247.38l13.88 6.45c.73.34 1.39.83 1.94 1.48l-13.88-6.45a5.646 5.646 0 0 0-1.94-1.48z"/></defs><clipPath id="SVGID_70_"><use xlink:href="#SVGID_69_" overflow="visible"/></clipPath><path d="M128.57 255.31l-13.88-6.45a5.741 5.741 0 0 0-1.94-1.48l13.88 6.45c.73.34 1.39.82 1.94 1.48" clip-path="url(#SVGID_70_)" fill="#979798"/></g><path class="st0" d="M118.84 265.3l-13.88-6.45 7.18-.81 13.87 6.44z"/><g><defs><path id="SVGID_71_" d="M114.02 265.16l-13.88-6.45c1.13.52 2.86.38 4.82.14l13.88 6.45c-1.96.24-3.69.38-4.82-.14z"/></defs><use xlink:href="#SVGID_71_" overflow="visible" fill="#5bc4e0"/><clipPath id="SVGID_72_"><use xlink:href="#SVGID_71_" overflow="visible"/></clipPath><path d="M114.02 265.16l-13.88-6.45c1.13.52 2.86.38 4.82.14l13.88 6.45c-1.96.24-3.69.38-4.82-.14" clip-path="url(#SVGID_72_)" fill="#5bc4e0"/></g><path class="st2" d="M106.06 279.64l-13.88-6.45c-2.89-1.34-4.69-4.46-4.65-10.29.07-10.71 7.44-21.73 17.58-26.28l13.88 6.45c-10.14 4.55-17.5 15.57-17.58 26.28-.03 5.83 1.77 8.95 4.65 10.29z"/><path class="st0" d="M118.44 235c-3.35-1.56-7.48-1.01-13.33 1.62-5 2.25-9.33 6.07-12.44 10.66 4.63 1.6 8.74 5.63 13.93 6.37 3.11-4.55 7.41-8.35 12.38-10.58 5.85-2.63 9.98-3.18 13.33-1.62L118.44 235z"/><path class="st1" d="M118.99 243.07c8.09-3.63 12.88-3.3 16.89 1.09l-7.31 11.14c-2.22-2.61-6.06-2.58-9.66-.96-3.34 1.5-6.23 4.24-6.26 8.19-.02 3.31 2.73 3.19 6.18 2.76l7.17-.81c6.53-.84 10.93 2.08 10.87 11.01-.09 12.48-9.12 22.8-18.55 27.04-8.02 3.6-14.99 4-19.31-1.69l7.3-11.38c2.35 3.12 6.75 4.19 11.57 2.03 3.46-1.56 7.19-4.59 7.22-8.62.02-3.54-2.28-3.8-5.1-3.49l-7.88.97c-6.21.7-10.8-1.74-10.73-10.99.1-10.72 7.46-21.74 17.6-26.29z"/><g><defs><path id="SVGID_73_" d="M70.32 310.19l-13.88-6.45c1.38.64 3.19.48 5.26-.45 4.04-1.81 7.91-6.44 7.96-12.97l13.88 6.45c-.04 6.52-3.92 11.15-7.96 12.97-2.07.93-3.88 1.09-5.26.45z"/></defs><use xlink:href="#SVGID_73_" overflow="visible" fill="#113448"/><clipPath id="SVGID_74_"><use xlink:href="#SVGID_73_" overflow="visible"/></clipPath><path d="M70.32 310.19l-13.88-6.45c1.38.64 3.19.48 5.26-.45 4.04-1.81 7.91-6.44 7.96-12.97l13.88 6.45c-.04 6.52-3.92 11.15-7.96 12.97-2.07.93-3.88 1.09-5.26.45" clip-path="url(#SVGID_74_)" fill="#113448"/></g><path class="st2" d="M83.54 296.77l-13.88-6.44.12-16.99 13.88 6.45z"/><g><defs><path id="SVGID_75_" d="M66.97 267.26l13.88 6.45c1.72.8 2.83 2.77 2.81 6.07l-13.88-6.45c.02-3.29-1.09-5.27-2.81-6.07z"/></defs><use xlink:href="#SVGID_75_" overflow="visible" fill="#113448"/><clipPath id="SVGID_76_"><use xlink:href="#SVGID_75_" overflow="visible"/></clipPath><path d="M83.66 279.79l-13.88-6.45c.02-3.3-1.09-5.28-2.81-6.07l13.88 6.45c1.71.79 2.83 2.76 2.81 6.07" clip-path="url(#SVGID_76_)" fill="#113448"/></g><g><defs><path id="SVGID_77_" d="M74.91 254.82l13.88 6.45c-3.56-1.65-8.26-1.11-13.15 1.09l-13.88-6.45c4.9-2.2 9.59-2.75 13.15-1.09z"/></defs><use xlink:href="#SVGID_77_" overflow="visible" fill="#5bc4e0"/><clipPath id="SVGID_78_"><use xlink:href="#SVGID_77_" overflow="visible"/></clipPath><path d="M75.65 262.35l-13.88-6.45c4.89-2.19 9.59-2.74 13.15-1.09l13.88 6.45c-3.57-1.65-8.27-1.1-13.15 1.09" clip-path="url(#SVGID_78_)" fill="#5bc4e0"/></g><path class="st0" d="M56.18 292.76l-13.88-6.45c.1-14.57 9.65-26 19.46-30.41l13.88 6.45c-9.81 4.41-19.36 15.84-19.46 30.41z"/><path class="st2" d="M56.07 309.35l.1-14.96.02.01c.04-6.36 1.88-13.76 4.76-18.6-5.07-2.07-9.47-3.33-14.31-5.67-2.62 4.68-4.3 10.15-4.34 16.18l-.11 16.59c-.05 7.55 2.33 11.78 6.03 13.5l13.88 6.45c-3.7-1.72-6.08-5.95-6.03-13.5z"/><path class="st0" d="M63.79 297.87l18.69 8.28-14.3 9.04z"/><path class="st1" d="M75.65 262.35c10.21-4.58 19.59-1.97 19.49 12.84l-.11 15.95c-.1 14.97-9.97 26.15-19.53 30.44-10.27 4.61-19.53 2.59-19.43-12.23l.11-16.59c.1-14.57 9.65-26 19.47-30.41zm7.89 34.42l.12-16.99c.04-6.04-3.73-7.64-8.03-5.71-4.1 1.84-7.91 6.28-7.96 12.97l-.11 16.83c-.04 6.12 3.34 7.98 8.03 5.87 4.03-1.81 7.91-6.44 7.95-12.97"/><g><defs><path id="SVGID_79_" d="M24.45 286.15l13.88 6.45c1.39.64 2.17 2.3 2.15 5-.03 4.59-2.62 8.81-6.73 10.65l-13.88-6.45c4.11-1.85 6.7-6.06 6.73-10.65.01-2.7-.77-4.36-2.15-5z"/></defs><use xlink:href="#SVGID_79_" overflow="visible" fill="#113448"/><clipPath id="SVGID_80_"><use xlink:href="#SVGID_79_" overflow="visible"/></clipPath><path d="M33.74 308.25l-13.88-6.45c4.11-1.85 6.7-6.06 6.73-10.65.02-2.69-.76-4.36-2.15-5l13.88 6.45c1.39.64 2.17 2.3 2.15 5-.03 4.59-2.62 8.8-6.73 10.65" clip-path="url(#SVGID_80_)" fill="#113448"/></g><path class="st0" d="M26.37 311.56l-13.88-6.45 7.38-3.31 13.87 6.45z"/><g><defs><path id="SVGID_81_" d="M32.29 273.58l13.88 6.45c-2.61-1.21-6.11-1.02-10.38.89l-13.88-6.45c4.27-1.91 7.76-2.11 10.38-.89z"/></defs><use xlink:href="#SVGID_81_" overflow="visible" fill="#5bc4e0"/><clipPath id="SVGID_82_"><use xlink:href="#SVGID_81_" overflow="visible"/></clipPath><path d="M35.79 280.92l-13.88-6.45c4.27-1.92 7.76-2.11 10.38-.89l13.88 6.45c-2.62-1.22-6.11-1.03-10.38.89" clip-path="url(#SVGID_82_)" fill="#5bc4e0"/></g><path class="st1" d="M35.79 280.92c10.14-4.55 15.92.63 15.85 11.26-.06 9.42-4.75 21.16-15.92 26.17l-9.43 4.23-.14 19.89-11.49 5.16.39-57.41 20.74-9.3zm-2.05 27.33c4.11-1.85 6.7-6.06 6.73-10.65.03-4.91-2.58-6.39-6.69-4.54l-7.31 3.28-.1 15.22 7.37-3.31"/><path class="st2" d="M14.67 347.64L.79 341.19l.39-57.41 13.88 6.45z"/><path class="st0" d="M15.06 290.23l-13.88-6.45 20.73-9.31 13.88 6.45z"/></svg>